<svg width="100" height="100" xmlns="http://www.w3.org/2000/svg">
    <mask height="120" width="120" y="0" x="0" maskUnits="userSpaceOnUse" id="mask0_22730_475">
        <path id="svg_1" fill="white" d="m0,0l120,0l0,120l-120,0l0,-120z"/>
    </mask>

    <g>
        <title>background</title>
        <rect fill="none" id="canvas_background" height="102" width="102" y="-1" x="-1"/>
    </g>
    <g>
        <title>Layer 1</title>
        <g stroke="null" id="svg_2" mask="url(#mask0_22730_475)">
            <path stroke="null" id="svg_3" fill="white" d="m49.950209,-0.000007c-27.485001,0 -49.741878,22.306668 -49.741878,49.791669c0,27.485001 22.256876,49.791669 49.741878,49.791669c27.534793,0 49.841461,-22.306668 49.841461,-49.791669c0,-27.485001 -22.306668,-49.791669 -49.841461,-49.791669zm21.211251,70.455212l-26.140626,-15.684376l0,-29.875002l7.46875,0l0,26.140626l22.406251,13.294376l-3.734375,6.124375z"/>
        </g>
    </g>
</svg>