<svg width="100" height="100" viewBox="0 0 100 100" fill="none" xmlns="http://www.w3.org/2000/svg">
<path fill-rule="evenodd" clip-rule="evenodd" d="M50 0.0800781C77.5515 0.0800781 99.92 22.4485 99.92 50.0001C99.92 77.5516 77.5515 99.9201 50 99.9201C22.4484 99.9201 0.0799561 77.5516 0.0799561 50.0001C0.0799561 22.4485 22.4484 0.0800781 50 0.0800781ZM73.6977 26.3747C67.7217 20.3936 59.7745 17.0983 51.3074 17.095C33.8612 17.095 19.6621 31.2887 19.6552 48.7349C19.6529 54.3117 21.1103 59.7555 23.8801 64.5537L19.3896 80.9505L36.169 76.5505C40.7921 79.0713 45.9972 80.3996 51.2948 80.4019H51.3078C68.7523 80.4019 82.9526 66.2065 82.9596 48.7601C82.9629 40.3053 79.6737 32.3553 73.6977 26.3747ZM51.3076 75.0578H51.2971C46.5763 75.0558 41.9463 73.7881 37.907 71.392L36.9463 70.8218L26.9894 73.433L29.647 63.7281L29.0215 62.7332C26.388 58.546 24.9972 53.7061 24.9992 48.7369C25.0051 34.2363 36.8068 22.439 51.3182 22.439C58.345 22.4417 64.9502 25.1811 69.9173 30.152C74.8843 35.1231 77.6182 41.7309 77.6155 48.7581C77.6096 63.2597 65.808 75.0576 51.3076 75.0578ZM65.7382 55.3608C64.9473 54.9652 61.059 53.0524 60.3338 52.7886C59.609 52.5247 59.0819 52.3927 58.5546 53.1842C58.0273 53.9757 56.5116 55.7567 56.0502 56.2843C55.589 56.8118 55.1277 56.8781 54.3368 56.4821C53.5458 56.0866 50.9976 55.2516 47.9768 52.5579C45.6257 50.4616 44.0384 47.8722 43.577 47.0809C43.1159 46.2894 43.5279 45.8616 43.924 45.4673C44.2796 45.1132 44.7147 44.544 45.1101 44.0822C45.5056 43.6205 45.6374 43.2907 45.9011 42.7632C46.1647 42.2354 46.0329 41.7738 45.8351 41.378C45.6374 40.9823 44.0558 37.0907 43.3967 35.5077C42.7549 33.966 42.1028 34.1747 41.6173 34.1505C41.1565 34.1275 40.6288 34.1226 40.1016 34.1226C39.5743 34.1226 38.7176 34.3205 37.9924 35.112C37.2676 35.9035 35.2246 37.8163 35.2246 41.7077C35.2246 45.5993 38.0585 49.3587 38.454 49.8866C38.8495 50.4143 44.0308 58.4001 51.9644 61.8247C53.8512 62.6392 55.3244 63.1257 56.473 63.4902C58.3676 64.0918 60.0916 64.0069 61.4544 63.8033C62.9739 63.5764 66.1337 61.8906 66.7926 60.0439C67.4515 58.1971 67.4515 56.6141 67.2539 56.2843C67.0562 55.9546 66.5289 55.7567 65.7382 55.3608Z" fill="white"/>
</svg>
