<svg width="100" height="100" viewBox="0 0 100 100" fill="none" xmlns="http://www.w3.org/2000/svg">
<path fill-rule="evenodd" clip-rule="evenodd" d="M50 99.9498C77.5867 99.9498 99.9501 77.5864 99.9501 49.9998C99.9501 22.4132 77.5867 0.0498047 50 0.0498047C22.4134 0.0498047 0.0500488 22.4132 0.0500488 49.9998C0.0500488 77.5864 22.4134 99.9498 50 99.9498Z" fill="white"/>
<path fill-rule="evenodd" clip-rule="evenodd" d="M49.9999 55.7577L78.8172 30.7827H21.1826L49.9999 55.7577ZM42.2164 52.993L49.9999 59.3819L57.6616 52.993L78.8172 71.1269H21.1826L42.2164 52.993ZM19.2615 69.2058V32.7039L40.3942 50.9548L19.2615 69.2058ZM80.7384 69.2058V32.7039L59.6057 50.9548L80.7384 69.2058Z" fill="#529AC6"/>
</svg>
