<svg width="100" height="100" viewBox="0 0 100 100" fill="none" xmlns="http://www.w3.org/2000/svg">
<path fill-rule="evenodd" clip-rule="evenodd" d="M50 99.9498C77.5866 99.9498 99.95 77.5864 99.95 49.9998C99.95 22.4132 77.5866 0.0498047 50 0.0498047C22.4134 0.0498047 0.0499878 22.4132 0.0499878 49.9998C0.0499878 77.5864 22.4134 99.9498 50 99.9498Z" fill="white"/>
<path fill-rule="evenodd" clip-rule="evenodd" d="M28.8571 42.3107C28.8571 52.9218 48.0686 77.7394 48.0686 77.0654C48.0686 76.3914 67.2801 52.9218 67.2801 42.3107C67.2801 31.6995 58.6734 23.0991 48.0686 23.0991C37.4638 23.0991 28.8571 31.6995 28.8571 42.3107ZM38.4628 40.3895C38.4628 45.6951 42.7662 49.9953 48.0686 49.9953C53.371 49.9953 57.6744 45.6951 57.6744 40.3895C57.6744 35.0839 53.371 30.7837 48.0686 30.7837C42.7662 30.7837 38.4628 35.0839 38.4628 40.3895Z" fill="#529AC6"/>
</svg>
