<svg width="100" height="100" viewBox="0 0 100 100" fill="none" xmlns="http://www.w3.org/2000/svg">
<path d="M85.3012 14.7016C76.2641 5.66507 63.7751 0.0800781 50.0136 0.0800781C36.2248 0.0800781 23.7342 5.66507 14.6985 14.7016C5.68913 23.7412 0.0799561 36.2344 0.0799561 49.9995C0.0799561 63.7932 5.68913 76.2588 14.6985 85.2984C23.7342 94.3359 36.2248 99.9201 50.0136 99.9201C63.7749 99.9201 76.2641 94.3359 85.3012 85.2984C94.3098 76.2588 99.92 63.7932 99.92 49.9995C99.92 36.2344 94.3098 23.7412 85.3012 14.7016Z" fill="white"/>
<path fill-rule="evenodd" clip-rule="evenodd" d="M54.0768 32.8645C52.9721 32.7247 51.5627 32.2551 51.3143 33.7201C51.0381 35.2402 52.6124 35.1308 53.6349 35.3513C60.5992 36.8723 62.9754 39.3582 64.1361 46.1048C64.1901 46.3815 64.2194 46.7399 64.2194 47.0439C64.302 47.8452 64.4953 48.563 65.7107 48.3434C66.3191 48.2597 66.54 47.929 66.5677 47.4594C66.6508 47.0439 66.5677 46.4907 66.6233 46.1048C66.6508 39.6072 60.9857 33.7201 54.0768 32.8645ZM54.7133 38.1985C53.9947 38.1985 53.2758 38.2812 52.9998 39.0559C52.5849 40.1616 53.4423 40.4648 54.2979 40.6027C57.1448 41.0182 58.6373 42.6771 58.9411 45.4404C58.9686 45.8273 59.1074 46.1317 59.2726 46.3817C59.5216 46.6553 59.8252 46.7676 60.2121 46.7401C60.4605 46.7401 60.654 46.6553 60.8191 46.5736C61.2903 46.2142 61.3724 45.5508 61.3174 44.8595C61.3725 41.7378 57.7801 38.1148 54.7133 38.1985ZM69.1374 60.0896C67.7286 58.983 66.1805 57.9887 64.7439 56.9657C61.7875 54.9749 59.0793 54.8115 56.8963 58.0437C55.6528 59.8689 53.9111 59.9515 52.1155 59.1491C47.1138 56.9657 43.2726 53.5661 41.0071 48.563C40.6749 47.7892 40.4545 47.0439 40.4262 46.3528C40.3432 45.0257 40.8958 43.866 42.3887 42.842C43.6318 42.0408 44.8473 41.073 44.7648 39.2763C44.6546 36.9273 38.8506 29.1047 36.5307 28.2471C35.5902 27.9152 34.6507 27.9713 33.6837 28.2471C28.2951 30.0426 26.0846 34.3568 28.212 39.4691C29.4278 42.345 30.7269 45.0257 32.2743 47.5402C38.8789 58.5969 48.6053 66.6687 61.1516 71.9475C62.0081 72.3069 62.9754 72.4733 63.5 72.5836C67.0098 72.6386 71.0988 69.2944 72.2875 66.0316C73.4483 62.8539 71.0172 61.6383 69.1374 60.0896ZM51.8675 29.8244C63.1129 31.5363 68.2806 36.7877 69.717 47.873C69.717 47.9842 69.717 48.0671 69.717 48.1478C69.8008 49.1706 69.6078 50.4987 70.9611 50.4987C72.1502 50.5264 72.2052 49.6421 72.2052 48.7847C72.1502 48.4814 72.1502 48.2324 72.1502 47.9844C72.2879 37.5066 62.9756 27.7789 52.1988 27.446C51.3419 27.5839 49.6837 26.8928 49.5462 28.6895C49.5177 29.8796 50.927 29.7121 51.8675 29.8244Z" fill="#529AC6"/>
</svg>
