<svg width="100" height="100" viewBox="0 0 100 100" fill="none" xmlns="http://www.w3.org/2000/svg">
<path d="M50 0.0800781C22.4299 0.0800781 0.0799561 22.43 0.0799561 50.0001C0.0799561 77.5702 22.4299 99.9201 50 99.9201C77.57 99.9201 99.92 77.5702 99.92 50.0001C99.92 22.43 77.57 0.0800781 50 0.0800781ZM75.9465 31.6576L67.0802 73.9851C66.9729 74.497 66.7387 74.9738 66.3991 75.3716C66.0595 75.7695 65.6253 76.0755 65.1365 76.2618C64.6478 76.448 64.12 76.5084 63.6018 76.4375C63.0835 76.3665 62.5914 76.1665 62.1707 75.8557L49.2742 66.3278L41.4609 73.6988C41.3586 73.7953 41.2382 73.8705 41.1065 73.9199C40.9749 73.9693 40.8347 73.992 40.6942 73.9867C40.5537 73.9813 40.4157 73.9481 40.2882 73.8888C40.1607 73.8295 40.0463 73.7455 39.9516 73.6415L39.7837 73.457L41.1413 60.3189L65.6107 37.9619C65.7317 37.8516 65.8069 37.6998 65.8216 37.5367C65.8362 37.3736 65.7892 37.2109 65.6898 37.0807C65.5904 36.9505 65.4458 36.8624 65.2845 36.8336C65.1233 36.8048 64.9571 36.8374 64.8188 36.9251L33.5254 56.7313L20.048 52.2049C19.6896 52.0846 19.3773 51.8562 19.1538 51.5513C18.9304 51.2464 18.8067 50.8798 18.7999 50.5018C18.7931 50.1238 18.9034 49.753 19.1156 49.4402C19.3279 49.1273 19.6318 48.8879 19.9856 48.7546L72.7175 28.8902C73.1242 28.7371 73.5646 28.6961 73.9927 28.7715C74.4207 28.8469 74.8206 29.0358 75.1506 29.3187C75.4806 29.6015 75.7286 29.9678 75.8686 30.3792C76.0086 30.7907 76.0355 31.2322 75.9465 31.6576Z" fill="white"/>
</svg>
