<?xml version="1.0" encoding="UTF-8" standalone="no"?>
<svg
   version="1.1"
   width="231.1402"
   height="231.1402"
   id="svg21"
   viewBox="0 0 231.1402 231.1402"
   sodipodi:docname="3e1d176b53ade80fc7db791f95a9d28d.cdr"
   xmlns:inkscape="http://www.inkscape.org/namespaces/inkscape"
   xmlns:sodipodi="http://sodipodi.sourceforge.net/DTD/sodipodi-0.dtd"
   xmlns="http://www.w3.org/2000/svg"
   xmlns:svg="http://www.w3.org/2000/svg">
  <defs
     id="defs25" />
  <sodipodi:namedview
     id="namedview23"
     pagecolor="#ffffff"
     bordercolor="#666666"
     borderopacity="1.0"
     inkscape:pageshadow="2"
     inkscape:pageopacity="0.0"
     inkscape:pagecheckerboard="0" />
  <g
     id="Layer1000"
     transform="translate(-20.3104,-305.3896)">
    <path
       d="m 144.1761,413.5359 -5.8076,-21.1953 -1.3061,-4.6942 c -0.4671,0.009 -1.6765,-6.4919 -1.1896,-6.9788 0.4866,-0.4872 5.8183,-5.373 9.1394,-8.7623 2.7843,-2.8406 3.3871,-7.3154 3.004,-7.6983 -0.3829,-0.3831 -4.8567,0.2198 -7.6985,3.0034 -3.3891,3.3211 -8.2746,8.6531 -8.7627,9.14 l -6.9782,-1.189 -4.6946,-1.3067 c -0.5128,0.135 -19.5135,-6.1629 -21.1949,-5.8076 -1.682,0.3547 -3.6956,1.8883 -3.24,2.3439 0.456,0.4557 15.1239,7.051 17.6701,8.6623 2.5478,1.6109 7.4338,6.3092 7.4345,6.8799 0,0.572 -13.1019,15.2745 -13.8643,15.8932 -0.7626,0.6188 -6.4108,-2.1165 -8.6047,-1.8123 -2.1936,0.3045 -3.8897,1.9259 -3.7529,2.4333 0.1362,0.5058 8.6213,4.2893 8.1987,5.0226 -0.3273,0.5674 -2.7112,4.391 -2.4392,4.6633 0.2724,0.2718 4.0963,-2.1121 4.6634,-2.439 0.7338,-0.423 4.5173,8.0624 5.0233,8.1992 0.5068,0.1362 2.1284,-1.5595 2.4326,-3.7532 0.3041,-2.1955 -2.4318,-7.8415 -1.812,-8.6047 0.6184,-0.7626 15.3209,-13.8642 15.8928,-13.8636 0.5715,-0.001 5.2694,4.8854 6.8809,7.4338 1.611,2.5465 8.2057,17.2141 8.6614,17.6698 0.456,0.4559 1.9898,-1.5583 2.3442,-3.2397 z"
       style="fill:#045f86;fill-rule:evenodd"
       id="path12" />
    <path
       d="m 123.5152,454.7078 c -1.2881,1.1941 -3.1552,2.974 -5.6862,5.0597 -2.5244,2.0902 -5.6921,4.513 -9.5271,6.9824 -1.9184,1.2308 -4.0099,2.4621 -6.2715,3.6452 -2.2579,1.1876 -4.7052,2.2964 -7.3221,3.2497 -0.6592,0.2231 -1.3141,0.4811 -1.9951,0.6791 -0.3381,0.105 -0.6779,0.2106 -1.0194,0.3168 -0.3418,0.104 -0.6903,0.1881 -1.0377,0.2836 -1.3888,0.3817 -2.8253,0.6691 -4.2876,0.8722 -0.366,0.0426 -0.7335,0.0845 -1.1029,0.1274 -0.369,0.0214 -0.7396,0.0437 -1.1115,0.0651 -0.3718,0.0334 -0.743,0.012 -1.1158,0.016 l -0.5591,-0.002 -0.5567,-0.0404 c -1.4833,-0.0982 -2.9646,-0.3776 -4.3153,-0.9401 l -0.4983,-0.2258 -0.2494,-0.1111 c -0.0805,-0.0419 -0.1564,-0.0918 -0.2348,-0.1368 l -0.4676,-0.2751 c -0.0753,-0.0466 -0.1618,-0.0882 -0.2286,-0.1394 l -0.1995,-0.1529 -0.4018,-0.2984 -0.1013,-0.0735 -0.1111,-0.1037 -0.2231,-0.2121 -0.4477,-0.4248 -0.0086,-0.008 0.0086,0.005 -0.0426,-0.0527 -0.0851,-0.1046 -0.1705,-0.2087 c -0.915,-1.1079 -1.531,-2.463 -1.8585,-3.9363 -0.3305,-1.4744 -0.3834,-3.0569 -0.2509,-4.6556 0.1359,-1.6003 0.4462,-3.2207 0.863,-4.8378 0.4221,-1.6174 0.994,-3.2241 1.6232,-4.8203 0.6378,-1.596 1.3857,-3.1693 2.174,-4.7328 1.5985,-3.1231 3.464,-6.1691 5.4863,-9.1473 1.0268,-1.4801 2.0819,-2.95 3.1922,-4.388 l 0.8273,-1.0833 0.8523,-1.0675 c 0.5628,-0.7164 1.15,-1.4151 1.7382,-2.1147 1.178,-1.3967 2.3895,-2.7711 3.6247,-4.1268 0.6167,-0.6761 1.2447,-1.3258 1.8665,-1.9902 l 1.9648,-2.0033 1.9466,-1.9124 c 0.6699,-0.6273 1.3303,-1.2654 2.0079,-1.8839 1.3582,-1.2321 2.7267,-2.4504 4.1247,-3.6277 0.4385,-0.3688 0.8786,-0.7348 1.3211,-1.0975 -1.0775,-2.035 -2.1654,-3.9594 -2.5244,-3.7525 -0.1986,0.1148 -0.7984,0.4822 -1.5045,0.8997 -0.112,0.0903 -0.2243,0.18 -0.3363,0.2705 -0.7486,0.591 -1.4674,1.2171 -2.1997,1.8298 -0.7297,0.6155 -1.4298,1.2649 -2.1466,1.8962 -0.7094,0.6396 -1.4007,1.2988 -2.1022,1.9482 l -2.0758,2.0149 -1.9623,2.0193 c -0.6548,0.7072 -1.3241,1.4092 -1.9649,2.1201 -1.278,1.42 -2.5353,2.8571 -3.7294,4.3432 -0.5998,0.741 -1.1981,1.4815 -1.7726,2.2411 l -0.8685,1.1314 -0.8434,1.1489 c -1.1225,1.5317 -2.1743,3.1105 -3.2039,4.6934 -0.4985,0.8033 -1.0065,1.5971 -1.4858,2.4084 -0.4713,0.8168 -0.952,1.6232 -1.3927,2.4534 -0.9114,1.6404 -1.7383,3.3233 -2.515,5.0156 -0.747,1.7105 -1.4496,3.4294 -2.0409,5.1849 -0.5833,1.7581 -1.1048,3.5291 -1.4714,5.3375 -0.3673,1.8065 -0.6057,3.6403 -0.6329,5.4884 -0.0281,1.8445 0.149,3.7131 0.6797,5.5135 0.5236,1.7945 1.438,3.5157 2.7274,4.8748 l 0.2402,0.2543 0.1203,0.1267 0.0603,0.0628 0.1126,0.1028 0.4746,0.3944 0.2369,0.1965 0.12,0.0986 0.1505,0.1025 0.6041,0.4018 c 0.8064,0.5145 1.6065,0.8634 2.4458,1.1571 1.671,0.5665 3.3747,0.7602 5.0126,0.7611 l 0.6138,0.003 0.6073,-0.0377 c 0.4027,-0.0306 0.8067,-0.0367 1.2009,-0.097 0.3947,-0.0498 0.788,-0.0991 1.1797,-0.1487 0.3862,-0.0707 0.7712,-0.1408 1.1544,-0.2108 1.5255,-0.2991 2.9988,-0.6819 4.4071,-1.1535 0.3519,-0.1181 0.7061,-0.2253 1.0506,-0.3513 0.3441,-0.128 0.6862,-0.2556 1.0268,-0.3822 0.6855,-0.2415 1.3389,-0.5412 1.9975,-0.8062 5.2169,-2.2548 9.6281,-4.9975 13.4085,-7.5706 3.7593,-2.6126 6.8873,-5.0894 9.3763,-7.2267 2.4932,-2.134 4.368,-3.9031 5.6426,-5.1122 0.2564,-0.2526 0.4817,-0.4744 0.6883,-0.6779 l -0.007,-0.007 c -0.2078,0.2017 -0.4343,0.4223 -0.6922,0.6727 z"
       style="fill:#a1cde9;fill-rule:evenodd"
       id="path14" />
    <path
       d="m 113.0363,454.9744 c -2.5242,2.0902 -5.6922,4.513 -9.5271,6.9824 -1.9186,1.2312 -4.01,2.4623 -6.2713,3.6452 -2.2578,1.188 -4.7056,2.2964 -7.3225,3.25 -0.6592,0.2232 -1.314,0.4808 -1.9947,0.6785 -0.3381,0.1053 -0.6781,0.2109 -1.0194,0.3171 -0.3418,0.1037 -0.6907,0.1879 -1.038,0.2834 -1.3888,0.3816 -2.825,0.6695 -4.2875,0.8728 -0.366,0.0422 -0.7336,0.0844 -1.103,0.127 -0.3687,0.0217 -0.7393,0.0437 -1.1115,0.0651 -0.3718,0.0334 -0.7431,0.0123 -1.1155,0.0163 l -0.5594,-0.002 -0.5564,-0.0404 c -1.4836,-0.0982 -2.9648,-0.3779 -4.3157,-0.9401 l -0.4982,-0.2252 -0.2491,-0.1117 c -0.0811,-0.0413 -0.1567,-0.0912 -0.235,-0.1362 l -0.4677,-0.2757 c -0.0752,-0.0466 -0.1615,-0.0876 -0.2286,-0.139 l -0.1995,-0.1527 -0.4018,-0.2987 -0.1014,-0.0732 -0.111,-0.104 -0.2234,-0.2121 -0.4474,-0.4247 -0.0107,-0.01 0.011,0.007 -0.0426,-0.0527 -0.0853,-0.105 -0.1705,-0.2086 c -0.915,-1.1079 -1.5314,-2.4624 -1.8585,-3.9363 -0.3309,-1.4738 -0.3835,-3.0566 -0.2513,-4.6553 0.1359,-1.6003 0.4465,-3.2207 0.863,-4.8375 0.4223,-1.618 0.994,-3.2244 1.6232,-4.8203 0.6378,-1.5966 1.3857,-3.1693 2.174,-4.7332 1.5985,-3.1227 3.4638,-6.1686 5.486,-9.1473 1.0271,-1.4803 2.082,-2.9498 3.1923,-4.3879 l 0.8272,-1.0833 0.8523,-1.0674 c 0.5628,-0.7165 1.1504,-1.4152 1.7385,-2.1145 1.178,-1.3967 2.3893,-2.7717 3.6244,-4.1277 0.6166,-0.6758 1.245,-1.3252 1.8665,-1.9899 l 1.9651,-2.0033 1.9463,-1.9118 c 0.6702,-0.6276 1.3306,-1.2657 2.0076,-1.8839 1.3584,-1.2321 2.7274,-2.451 4.125,-3.628 l 0.0257,-0.0215 c 0.5744,-1.0013 1.1859,-1.9922 1.3402,-2.26 0.1915,-0.3317 -1.4461,-1.2902 -3.3064,-2.2861 -0.3691,0.2935 -0.7364,0.5907 -1.1036,0.8878 -0.7485,0.5913 -1.4674,1.2175 -2.1998,1.8295 -0.7299,0.6157 -1.4294,1.2651 -2.1461,1.8968 -0.7095,0.6397 -1.4011,1.2985 -2.1025,1.9479 l -2.0758,2.0146 -1.9621,2.0199 c -0.6548,0.7069 -1.3241,1.4086 -1.965,2.1198 -1.2783,1.4197 -2.5354,2.8568 -3.7293,4.3436 -0.5998,0.7409 -1.1984,1.4815 -1.7725,2.2404 l -0.8686,1.1318 -0.8437,1.1488 c -1.1225,1.5317 -2.174,3.1102 -3.2036,4.6931 -0.4984,0.8036 -1.0068,1.5975 -1.4861,2.409 -0.471,0.8165 -0.952,1.6229 -1.3924,2.4532 -0.9114,1.6406 -1.7383,3.3232 -2.515,5.0159 -0.747,1.7098 -1.4496,3.4287 -2.0409,5.1845 -0.5833,1.7581 -1.1045,3.5292 -1.4714,5.3375 -0.3673,1.8068 -0.6057,3.6403 -0.6329,5.4884 -0.0281,1.8444 0.149,3.7131 0.6797,5.5138 0.5239,1.7946 1.4384,3.5154 2.7274,4.8745 l 0.2408,0.2546 0.12,0.1261 0.06,0.0634 0.1126,0.1028 0.475,0.3942 0.2368,0.1961 0.12,0.0988 0.1508,0.1026 0.6041,0.4021 c 0.8065,0.5139 1.6065,0.8628 2.4456,1.1571 1.6709,0.5665 3.3749,0.7599 5.0125,0.7608 l 0.6142,0.002 0.6069,-0.0374 c 0.4027,-0.0302 0.8067,-0.0364 1.2008,-0.097 0.3948,-0.0498 0.7881,-0.0995 1.1798,-0.1487 0.3865,-0.0707 0.7712,-0.1407 1.1543,-0.2108 1.5256,-0.2987 2.9989,-0.6816 4.4073,-1.1535 0.3522,-0.1185 0.706,-0.2249 1.0508,-0.3513 0.3441,-0.1282 0.6862,-0.2552 1.0265,-0.3823 0.6855,-0.2414 1.3389,-0.5411 1.9975,-0.8061 5.2169,-2.2551 9.6284,-4.9974 13.4088,-7.5706 3.7591,-2.6123 6.8874,-5.0894 9.3759,-7.2267 0.1641,-0.1404 0.3187,-0.2751 0.4772,-0.4122 l -0.053,-0.0533 c -0.1591,0.1335 -0.314,0.2642 -0.4789,0.4004 z"
       style="fill:#529ac6;fill-rule:evenodd"
       id="path16" />
  </g>
  <path
     d="M 0,0 V 231.1402 H 554.2504 V 0 Z"
     style="fill:none"
     id="path19" />
</svg>
